<svg width="20" height="20" viewBox="0 0 20 20" fill="none" xmlns="http://www.w3.org/2000/svg">
<circle cx="10" cy="10" r="10" fill="#8D4399"/>
<path d="M15.3125 7.75C15.3125 7.92591 15.2454 8.10191 15.1111 8.23598L9.61108 13.736C9.47734 13.8709 9.30117 13.9375 9.125 13.9375C8.94883 13.9375 8.77309 13.8704 8.63902 13.7361L5.88902 10.9861C5.75475 10.8523 5.6875 10.6762 5.6875 10.5C5.6875 10.1073 6.00869 9.8125 6.375 9.8125C6.55091 9.8125 6.72691 9.87964 6.86098 10.0139L9.125 12.2789L14.1395 7.26445C14.2727 7.12975 14.4488 7.0625 14.625 7.0625C14.9924 7.0625 15.3125 7.35684 15.3125 7.75Z" fill="white"/>
</svg>
