<svg width="34" height="26" viewBox="0 0 34 26" fill="none" xmlns="http://www.w3.org/2000/svg">
<path d="M28.6406 0.756348H5.25035C4.636 0.756348 4.13807 1.25568 4.13807 1.86863C4.13807 2.48158 4.636 2.98092 5.25035 2.98092H28.6406C30.2003 2.98092 31.4711 4.25029 31.4711 5.81422V20.187C31.4711 21.7481 30.2003 23.0175 28.6406 23.0175H5.36116C3.80144 23.0175 2.53066 21.7481 2.53066 20.187V5.70342C2.53066 5.08766 2.03132 4.58973 1.41557 4.58973C0.802621 4.58973 0.304688 5.08766 0.304688 5.70342V20.187C0.304688 22.9768 2.57274 25.2434 5.36116 25.2434H28.6406C31.429 25.2434 33.6971 22.9768 33.6971 20.187V5.81422C33.6971 3.023 31.429 0.756348 28.6406 0.756348ZM24.9026 16.5584C24.2265 16.5584 23.6795 16.0099 23.6795 15.3381C23.6795 14.7209 23.1801 14.223 22.5658 14.223C21.9514 14.223 21.4535 14.7209 21.4535 15.3381C21.4535 16.8459 22.4354 18.1195 23.7889 18.5852V19.2149C23.7889 19.8293 24.2882 20.33 24.9026 20.33C25.5183 20.33 26.0149 19.8293 26.0149 19.2149V18.5852C27.3698 18.1195 28.3502 16.8459 28.3502 15.3381C28.3502 13.4333 26.8045 11.8862 24.9026 11.8862C24.2265 11.8862 23.6795 11.3378 23.6795 10.6645C23.6795 9.98985 24.2265 9.44142 24.9026 9.44142C25.5758 9.44142 26.1243 9.98985 26.1243 10.6645C26.1243 11.2789 26.6222 11.7782 27.238 11.7782C27.8523 11.7782 28.3502 11.2789 28.3502 10.6645C28.3502 9.15388 27.3698 7.8831 26.0149 7.41603V6.78344C26.0149 6.16909 25.5183 5.66975 24.9026 5.66975C24.2882 5.66975 23.7889 6.16909 23.7889 6.78344V7.41603C22.4354 7.8831 21.4535 9.15388 21.4535 10.6645C21.4535 12.5665 23.0006 14.1122 24.9026 14.1122C25.5758 14.1122 26.1243 14.6606 26.1243 15.3381C26.1243 16.0099 25.5758 16.5584 24.9026 16.5584ZM5.86891 19.6792H17.0002C17.6145 19.6792 18.1125 19.1785 18.1125 18.5655C18.1125 17.9526 17.6145 17.4532 17.0002 17.4532H5.86891C5.25456 17.4532 4.75663 17.9526 4.75663 18.5655C4.75663 19.1785 5.25456 19.6792 5.86891 19.6792ZM5.86891 8.54795H17.0002C17.6145 8.54795 18.1125 8.04861 18.1125 7.43566C18.1125 6.81991 17.6145 6.32198 17.0002 6.32198H5.86891C5.25456 6.32198 4.75663 6.81991 4.75663 7.43566C4.75663 8.04861 5.25456 8.54795 5.86891 8.54795ZM5.86891 14.1122H17.0002C17.6145 14.1122 18.1125 13.6142 18.1125 12.9985C18.1125 12.3841 17.6145 11.8862 17.0002 11.8862H5.86891C5.25456 11.8862 4.75663 12.3841 4.75663 12.9985C4.75663 13.6142 5.25456 14.1122 5.86891 14.1122Z" fill="#A2D061"/>
</svg>
