<svg width="10" height="14" viewBox="0 0 10 14" fill="none" xmlns="http://www.w3.org/2000/svg">
<path d="M6.71336 7.02461L1.00991 11.7295C0.782247 11.9188 0.638884 12.1907 0.611211 12.4854C0.583539 12.7802 0.673811 13.074 0.862261 13.3024C1.05071 13.5307 1.32198 13.6751 1.61666 13.7039C1.91134 13.7327 2.20543 13.6435 2.43451 13.4559L9.17336 7.89648C9.29972 7.79196 9.40159 7.66098 9.47179 7.51279C9.54198 7.36459 9.57879 7.20279 9.5796 7.03881C9.58041 6.87483 9.54521 6.71267 9.47649 6.56379C9.40776 6.4149 9.30719 6.28292 9.18187 6.17716L2.49839 0.551291C2.27128 0.360542 1.97774 0.267738 1.68226 0.293269C1.38678 0.318799 1.11351 0.460575 0.922489 0.687451C0.731467 0.914328 0.638313 1.20775 0.66349 1.50327C0.688666 1.79878 0.830116 2.07222 1.05676 2.26351L6.71336 7.02461Z" fill="#111111"/>
</svg>
