<svg width="10" height="15" viewBox="0 0 10 15" fill="none" xmlns="http://www.w3.org/2000/svg">
<path d="M3.60663 7.55759L9.28672 2.82449C9.51344 2.63406 9.65546 2.36154 9.68167 2.06662C9.70788 1.7717 9.61616 1.47841 9.42658 1.25097C9.237 1.02354 8.96502 0.880493 8.6702 0.853168C8.37538 0.825843 8.08174 0.916461 7.8536 1.10518L1.14234 6.69792C1.0165 6.80305 0.915277 6.93454 0.845817 7.08308C0.776358 7.23162 0.740356 7.3936 0.740356 7.55759C0.740356 7.72157 0.776358 7.88355 0.845817 8.03209C0.915277 8.18063 1.0165 8.31212 1.14234 8.41725L7.8536 14.01C8.08164 14.1996 8.37563 14.2909 8.67099 14.264C8.96634 14.237 9.2389 14.0938 9.4288 13.866C9.6187 13.6382 9.7104 13.3443 9.68376 13.0489C9.65712 12.7535 9.51432 12.4808 9.28672 12.2906L3.60663 7.55759Z" fill="#111111" fill-opacity="0.3"/>
</svg>
