<svg width="38" height="33" viewBox="0 0 38 33" fill="none" xmlns="http://www.w3.org/2000/svg">
<path d="M35.2403 14.1127L34.1834 12.2254C33.8755 11.6572 33.4205 11.1822 32.866 10.8502C32.3116 10.5182 31.678 10.3413 31.0317 10.3382H25.9928C26.3609 9.4398 26.55 8.47817 26.5495 7.50729C26.5365 5.59598 25.7989 3.76077 24.4856 2.37201C23.1724 0.983256 21.3812 0.144355 19.4736 0.0246064C17.566 -0.0951426 15.684 0.513175 14.2074 1.7268C12.7308 2.94042 11.7695 4.66899 11.5175 6.56366H3.90244C2.90138 6.56366 1.94132 6.96133 1.23346 7.66919C0.5256 8.37705 0.12793 9.33711 0.12793 10.3382V24.4926C0.12793 25.4936 0.5256 26.4537 1.23346 27.1616C1.94132 27.8694 2.90138 28.2671 3.90244 28.2671H3.9968C4.21338 29.3337 4.79203 30.2926 5.6347 30.9813C6.47737 31.6701 7.53224 32.0463 8.62058 32.0463C9.70892 32.0463 10.7638 31.6701 11.6065 30.9813C12.4491 30.2926 13.0278 29.3337 13.2444 28.2671H24.7566C24.9732 29.3337 25.5518 30.2926 26.3945 30.9813C27.2372 31.6701 28.292 32.0463 29.3804 32.0463C30.4687 32.0463 31.5236 31.6701 32.3663 30.9813C33.2089 30.2926 33.7876 29.3337 34.0042 28.2671H34.2684C35.2244 28.2671 36.1412 27.8873 36.8173 27.2113C37.4933 26.5353 37.873 25.6185 37.873 24.6624V19.7744C37.8762 19.1631 37.7201 18.5614 37.4201 18.0287L35.2403 14.1127ZM34.0985 15.9999L35.1365 17.8872L35.6649 18.8308H29.3804C29.1301 18.8308 28.8901 18.7314 28.7131 18.5544C28.5362 18.3775 28.4368 18.1375 28.4368 17.8872V16.9436C28.4368 16.6933 28.5362 16.4533 28.7131 16.2763C28.8901 16.0994 29.1301 15.9999 29.3804 15.9999H34.0985ZM15.4808 3.07224C16.4797 2.27379 17.7216 1.84094 19.0005 1.84552C20.5021 1.84552 21.9422 2.44203 23.004 3.50382C24.0657 4.5656 24.6622 6.0057 24.6622 7.50729C24.6607 8.5042 24.3901 9.48222 23.879 10.3382C23.7385 10.59 23.5775 10.8298 23.3978 11.0553C23.2131 11.2873 23.0078 11.5021 22.7844 11.697C22.519 11.9346 22.2315 12.1463 21.9257 12.3292L21.7276 12.433C21.4735 12.5765 21.2084 12.6995 20.9349 12.801C20.6616 12.9039 20.3808 12.9859 20.0951 13.0464H20.0102C19.6778 13.1168 19.34 13.1578 19.0005 13.1691C18.8118 13.1691 18.623 13.1691 18.4343 13.1691H18.3399L17.8776 13.0936C16.8102 12.8791 15.8273 12.3614 15.0467 11.6026L14.858 11.395C14.7902 11.3304 14.7271 11.261 14.6692 11.1874C14.6232 11.1381 14.5821 11.0844 14.5466 11.027C14.469 10.9368 14.3966 10.8422 14.3295 10.7439C14.2737 10.6656 14.2233 10.5837 14.1785 10.4986C14.1314 10.4231 14.0842 10.3476 14.0464 10.2721C13.9855 10.1691 13.9319 10.0619 13.886 9.95129L13.8011 9.772C13.7539 9.65876 13.7067 9.53609 13.669 9.41342C13.6312 9.29075 13.6218 9.30018 13.6029 9.253C13.5841 9.20582 13.5369 8.99822 13.5086 8.86611C13.4803 8.73401 13.5086 8.75288 13.4614 8.69626C13.4142 8.63964 13.4614 8.43204 13.4048 8.2905V8.13008C13.3445 7.66651 13.3445 7.19709 13.4048 6.73352C13.6006 5.29167 14.344 3.98056 15.4808 3.07224ZM8.62058 30.1543C7.9613 30.1523 7.3234 29.9203 6.81693 29.4982C6.31046 29.0762 5.96718 28.4906 5.84631 27.8425C5.80837 27.6721 5.78939 27.498 5.78969 27.3235C5.78969 26.5727 6.08795 25.8526 6.61884 25.3217C7.14973 24.7908 7.86978 24.4926 8.62058 24.4926C9.37137 24.4926 10.0914 24.7908 10.6223 25.3217C11.1532 25.8526 11.4515 26.5727 11.4515 27.3235C11.4518 27.498 11.4328 27.6721 11.3948 27.8425C11.274 28.4906 10.9307 29.0762 10.4242 29.4982C9.91775 29.9203 9.27985 30.1523 8.62058 30.1543ZM13.2444 26.3798V26.2949C13.1889 26.0408 13.1132 25.7915 13.0179 25.5494L12.8669 25.2475C12.7965 25.0906 12.7145 24.9392 12.6216 24.7945L12.3951 24.4926C12.3024 24.3666 12.2015 24.2468 12.0931 24.134C12.0091 24.0359 11.9176 23.9444 11.8195 23.8604L11.4515 23.549C11.3483 23.4712 11.2412 23.3987 11.1306 23.3319L10.6966 23.096L10.3663 22.945C10.1907 22.8772 10.0111 22.8205 9.82842 22.7752L9.56421 22.6997C8.9732 22.5738 8.36231 22.5738 7.77131 22.6997L7.47879 22.7752C7.29611 22.8205 7.11647 22.8772 6.94092 22.945L6.61065 23.096L6.17658 23.3319C6.04348 23.3966 5.91429 23.4691 5.78969 23.549L5.43112 23.8509C5.33297 23.9349 5.24148 24.0264 5.15746 24.1246C5.04551 24.2401 4.94147 24.363 4.84607 24.4926L4.6196 24.804C4.52668 24.9487 4.44468 25.1001 4.37425 25.2569C4.37425 25.3607 4.27045 25.4551 4.22327 25.5589C4.12799 25.8009 4.05226 26.0502 3.9968 26.3043V26.3893H3.90244C3.40191 26.3893 2.92188 26.1904 2.56795 25.8365C2.21402 25.4826 2.01518 25.0026 2.01518 24.502V10.3382C2.01518 9.83764 2.21402 9.35761 2.56795 9.00368C2.92188 8.64975 3.40191 8.45092 3.90244 8.45092H11.5364V8.58302C11.5833 8.90206 11.6527 9.21739 11.744 9.52665C11.7564 9.59035 11.7721 9.65335 11.7912 9.71538C11.8999 10.0365 12.0259 10.3515 12.1686 10.659L12.3007 10.9138C12.4597 11.2243 12.6394 11.5238 12.8386 11.8102L12.9707 11.9801C13.1959 12.2887 13.4452 12.579 13.7162 12.8482C13.8896 13.0186 14.0723 13.1792 14.2635 13.3295L14.6032 13.5843C14.6787 13.6314 14.7542 13.6975 14.8391 13.7447C14.924 13.7918 15.1977 13.9711 15.377 14.0749H15.4524C15.6483 14.1806 15.8499 14.2751 16.0564 14.358H16.1035C16.3017 14.443 16.5093 14.509 16.7169 14.5751H16.7924L17.3774 14.726H17.5095C17.6983 14.7638 17.887 14.7921 18.0757 14.811H18.2456C18.497 14.8251 18.749 14.8251 19.0005 14.811C19.2971 14.8112 19.5933 14.7923 19.8875 14.7543H20.114C20.3404 14.7543 20.5575 14.6789 20.7745 14.6317H20.8877V18.8308H6.73332C6.48306 18.8308 6.24304 18.9302 6.06608 19.1072C5.88911 19.2842 5.78969 19.5242 5.78969 19.7744C5.78969 20.0247 5.88911 20.2647 6.06608 20.4417C6.24304 20.6187 6.48306 20.7181 6.73332 20.7181H20.8877V26.3798H13.2444ZM29.3804 30.1543C28.7211 30.1523 28.0832 29.9203 27.5767 29.4982C27.0703 29.0762 26.727 28.4906 26.6061 27.8425C26.5682 27.6721 26.5492 27.498 26.5495 27.3235C26.5495 26.5727 26.8478 25.8526 27.3786 25.3217C27.9095 24.7908 28.6296 24.4926 29.3804 24.4926C30.1312 24.4926 30.8512 24.7908 31.3821 25.3217C31.913 25.8526 32.2113 26.5727 32.2113 27.3235C32.2116 27.498 32.1926 27.6721 32.1546 27.8425C32.0338 28.4906 31.6905 29.0762 31.184 29.4982C30.6776 29.9203 30.0397 30.1523 29.3804 30.1543ZM35.9858 24.6624C35.9833 25.1172 35.8016 25.5525 35.48 25.8741C35.1585 26.1956 34.7231 26.3774 34.2684 26.3798H34.0042V26.2949C33.9487 26.0408 33.873 25.7915 33.7777 25.5494L33.6267 25.2475C33.5563 25.0906 33.4743 24.9392 33.3814 24.7945L33.1549 24.4926C33.0622 24.3666 32.9613 24.2468 32.8529 24.134C32.7689 24.0359 32.6774 23.9444 32.5793 23.8604L32.2113 23.549C32.1081 23.4712 32.001 23.3987 31.8904 23.3319L31.4564 23.096L31.1261 22.945C30.9505 22.8772 30.7709 22.8205 30.5882 22.7752L30.324 22.6997C29.733 22.5738 29.1221 22.5738 28.5311 22.6997L28.2386 22.7752C28.0559 22.8205 27.8763 22.8772 27.7007 22.945L27.3705 23.096L26.9364 23.3319C26.8033 23.3966 26.6741 23.4691 26.5495 23.549L26.1909 23.8509C26.0928 23.9349 26.0013 24.0264 25.9173 24.1246C25.8053 24.2401 25.7013 24.363 25.6059 24.4926L25.3794 24.804C25.2865 24.9487 25.2045 25.1001 25.1341 25.2569L24.9831 25.5589C24.8878 25.8009 24.8121 26.0502 24.7566 26.3043V26.3893H22.775V14.0372C23.5858 13.5695 24.3026 12.9552 24.8887 12.2254H31.0317C31.3382 12.226 31.639 12.3085 31.9028 12.4645C32.1666 12.6204 32.3839 12.8442 32.5321 13.1124L33.0888 14.1127H29.3804C28.6296 14.1127 27.9095 14.4109 27.3786 14.9418C26.8478 15.4727 26.5495 16.1928 26.5495 16.9436V17.8872C26.5495 18.638 26.8478 19.358 27.3786 19.8889C27.9095 20.4198 28.6296 20.7181 29.3804 20.7181H35.9858V24.6624Z" fill="#A2D061"/>
</svg>
