<svg width="24" height="24" viewBox="0 0 24 24" fill="none" xmlns="http://www.w3.org/2000/svg">
<path d="M12 -0.000244141C5.373 -0.000244141 0 5.37276 0 11.9998C0 18.6268 5.373 23.9998 12 23.9998C18.627 23.9998 24 18.6268 24 11.9998C24 5.37276 18.627 -0.000244141 12 -0.000244141ZM18.707 9.70676L11.147 17.2668C10.959 17.4548 10.705 17.5598 10.44 17.5598C10.175 17.5598 9.92 17.4548 9.733 17.2668L6.28 13.8138C5.889 13.4228 5.889 12.7908 6.28 12.3998C6.671 12.0088 7.303 12.0088 7.694 12.3998L10.44 15.1458L17.293 8.29276C17.684 7.90176 18.316 7.90176 18.707 8.29276C19.098 8.68376 19.098 9.31576 18.707 9.70676Z" fill="white"/>
</svg>
